<?xml version="1.0" encoding="UTF-8" standalone="no"?>
<svg
   xmlns:dc="http://purl.org/dc/elements/1.1/"
   xmlns:cc="http://creativecommons.org/ns#"
   xmlns:rdf="http://www.w3.org/1999/02/22-rdf-syntax-ns#"
   xmlns:svg="http://www.w3.org/2000/svg"
   xmlns="http://www.w3.org/2000/svg"
   xmlns:xlink="http://www.w3.org/1999/xlink"
   xmlns:sodipodi="http://sodipodi.sourceforge.net/DTD/sodipodi-0.dtd"
   xmlns:inkscape="http://www.inkscape.org/namespaces/inkscape"
   width="91.887619mm"
   height="50.699692mm"
   viewBox="0 0 91.887621 50.69969"
   version="1.1"
   id="svg8"
   inkscape:version="1.0.1 (3bc2e813f5, 2020-09-07)"
   sodipodi:docname="background-header.svg">
  <defs
     id="defs2">
    <linearGradient
       inkscape:collect="always"
       id="linearGradient999">
      <stop
         style="stop-color:#8300bd;stop-opacity:1;"
         offset="0"
         id="stop995" />
      <stop
         style="stop-color:#bd0063;stop-opacity:0"
         offset="1"
         id="stop997" />
    </linearGradient>
    <linearGradient
       inkscape:collect="always"
       xlink:href="#linearGradient999"
       id="linearGradient1001"
       x1="67.296082"
       y1="34.471863"
       x2="222.56728"
       y2="133.66562"
       gradientUnits="userSpaceOnUse" />
  </defs>
  <sodipodi:namedview
     id="base"
     pagecolor="#ffffff"
     bordercolor="#666666"
     borderopacity="1.0"
     inkscape:pageopacity="0.0"
     inkscape:pageshadow="2"
     inkscape:zoom="0.84670104"
     inkscape:cx="426.63802"
     inkscape:cy="199.89866"
     inkscape:document-units="mm"
     inkscape:current-layer="g866"
     inkscape:document-rotation="0"
     showgrid="false"
     inkscape:window-width="1366"
     inkscape:window-height="705"
     inkscape:window-x="-8"
     inkscape:window-y="-8"
     inkscape:window-maximized="1" />
  <metadata
     id="metadata5">
    <rdf:RDF>
      <cc:Work
         rdf:about="">
        <dc:format>image/svg+xml</dc:format>
        <dc:type
           rdf:resource="http://purl.org/dc/dcmitype/StillImage" />
        <dc:title />
      </cc:Work>
    </rdf:RDF>
  </metadata>
  <g
     inkscape:label="Layer 1"
     inkscape:groupmode="layer"
     id="layer1"
     transform="translate(22.165022,9.167024)">
    <g
       id="g866"
       transform="matrix(0.99956338,0,0,1.1918993,0.04587835,-0.07570585)">
      <g
         id="g865"
         transform="matrix(0.39988116,0,0,0.28309973,-16.328332,-6.7742089)">
        <g
           id="g1092"
           transform="matrix(1.1203242,0,0,1.031386,-18.5175,-8.4299072)">
          <path
             style="font-variation-settings:normal;opacity:1;vector-effect:none;fill:url(#linearGradient1001);fill-opacity:1;stroke:none;stroke-width:1;stroke-linecap:butt;stroke-linejoin:miter;stroke-miterlimit:4;stroke-dasharray:none;stroke-dashoffset:0;stroke-opacity:1;stop-color:#000000;stop-opacity:1"
             d="M 0.31649355,0.63298712 H 209.83523 C 210.12299,42.213347 210.21648,82.327466 209.51874,116.46963 128.45315,142.45627 79.442675,76.322947 0.31649356,116.78612 Z"
             id="path833"
             sodipodi:nodetypes="ccccc" />
          <path
             style="fill:#ffffff;fill-opacity:0.497992;stroke:none;stroke-width:1.1962;stroke-miterlimit:4;stroke-dasharray:none"
             d="m 159.15011,123.65068 c -0.69629,-0.0673 -2.90383,-0.27531 -4.90565,-0.46215 -11.59278,-1.08203 -21.31192,-3.0677 -47.92193,-9.79069 -13.424681,-3.39173 -25.832488,-6.20186 -29.618998,-6.70813 -1.524159,-0.20379 15.443015,-3.59284 24.844748,-4.96253 26.87783,-3.915706 49.21649,-2.702536 72.31878,3.92748 6.61731,1.89908 11.76188,3.67917 18.15496,6.28189 6.03789,2.45812 13.4944,5.90927 13.4944,6.24573 0,0.15297 -0.0639,0.27813 -0.14194,0.27813 -0.0781,0 -2.32121,0.56485 -4.98478,1.25523 -5.55747,1.44045 -11.79596,2.63243 -17.59127,3.36113 -3.80022,0.47784 -20.46097,0.88217 -23.64832,0.57391 z"
             id="path843" />
          <path
             style="fill:#ffffff;fill-opacity:0.497992;stroke:none;stroke-width:1.1962;stroke-miterlimit:4;stroke-dasharray:none"
             d="m 159.15011,123.65067 c -11.68376,-0.60643 -25.92586,-3.02538 -41.61441,-7.06797 -4.78672,-1.23344 -4.93132,-1.02289 2.09723,-3.05364 14.7406,-4.25899 26.40318,-6.09372 38.73044,-6.093 11.57188,7.9e-4 20.82738,1.43312 31.32327,4.84781 4.07545,1.32588 10.49067,3.86529 13.04772,5.16482 l 1.44918,0.73649 -3.76223,1.03569 c -8.74077,2.4062 -18.19164,3.91501 -27.81573,4.44071 -6.2182,0.33966 -6.70906,0.33926 -13.45547,-0.0109 z"
             id="path853" />
          <path
             style="fill:#ffffff;fill-opacity:0.497992;stroke:none;stroke-width:1.1962;stroke-miterlimit:4;stroke-dasharray:none"
             d="m 163.62717,122.4574 c -6.14709,-0.3259 -9.57468,-0.67356 -9.27807,-0.94105 0.14191,-0.12797 2.98531,-1.31713 6.31869,-2.64258 3.33337,-1.32545 13.16049,-5.35068 21.83805,-8.94495 8.67756,-3.59427 18.30537,-7.5733 21.39514,-8.8423 l 5.61776,-2.30727 v 8.84519 8.84519 l -0.87036,0.33251 c -1.95061,0.7452 -9.07441,2.54296 -13.5301,3.41444 -6.2939,1.23101 -11.44882,1.86036 -18.35662,2.24111 -6.15942,0.33949 -6.72598,0.33948 -13.13449,-2.7e-4 z"
             id="path855" />
          <path
             style="fill:#ffffff;fill-opacity:0.269076;stroke:none;stroke-width:1.1962;stroke-miterlimit:4;stroke-dasharray:none"
             d="m 0.31649356,116.78612 c 0,-0.45324 4.52090714,-6.13879 7.02675864,-8.83694 7.9726858,-8.584518 15.0375158,-12.879486 23.9598488,-14.566061 3.797649,-0.717863 10.916488,-0.434245 15.696191,0.625348 6.618373,1.467196 13.782159,4.094194 24.869,9.119593 3.165073,1.43465 5.606301,2.65792 5.424948,2.71837 -0.181354,0.0605 -1.803763,-0.10896 -3.605356,-0.37647 -13.580273,-2.01648 -28.44039,-1.89866 -40.772553,0.32328 -9.261361,1.66866 -22.364026,6.04874 -30.7350013,10.2744 -1.0251099,0.51747 -1.86383614,0.84079 -1.86383614,0.71848 z"
             id="path857" />
          <ellipse
             style="fill:#ffffff;fill-opacity:0.269076;stroke:none;stroke-width:0.916168;stroke-miterlimit:4;stroke-dasharray:none;stroke-opacity:1"
             id="path1003"
             cx="9.2745008"
             cy="11.319075"
             rx="21.250477"
             ry="15.945375" />
          <ellipse
             style="fill:#ffffff;fill-opacity:0.269076;stroke:none;stroke-width:0.916168;stroke-miterlimit:4;stroke-dasharray:none;stroke-opacity:1"
             id="path1005"
             cx="191.95401"
             cy="67.753197"
             rx="5.2194152"
             ry="4.2208347" />
          <ellipse
             style="fill:#ffffff;fill-opacity:0.269076;stroke:none;stroke-width:3.18103;stroke-miterlimit:4;stroke-dasharray:none;stroke-opacity:1"
             id="path1005-9"
             cx="194.1909"
             cy="81.978973"
             rx="18.267952"
             ry="14.538431" />
          <ellipse
             style="fill:#ffffff;fill-opacity:0.269076;stroke:none;stroke-width:2.21576;stroke-miterlimit:4;stroke-dasharray:none;stroke-opacity:1"
             id="path1005-0"
             cx="77.126892"
             cy="102.61417"
             rx="12.302907"
             ry="10.473923" />
          <ellipse
             style="fill:#ffffff;fill-opacity:0.269076;stroke:none;stroke-width:1.36615;stroke-miterlimit:4;stroke-dasharray:none;stroke-opacity:1"
             id="path1005-2"
             cx="93.717163"
             cy="62.907055"
             rx="7.6427145"
             ry="6.4094157" />
          <ellipse
             style="fill:#ffffff;fill-opacity:0.269076;stroke:none;stroke-width:0.916168;stroke-miterlimit:4;stroke-dasharray:none;stroke-opacity:1"
             id="path1005-5"
             cx="100.98707"
             cy="68.847488"
             rx="5.2194147"
             ry="4.2208347" />
          <path
             sodipodi:type="star"
             style="fill:#ffffff;fill-opacity:0.269076;stroke:none;stroke-width:3.77953;stroke-miterlimit:4;stroke-dasharray:none;stroke-opacity:1"
             id="path1046"
             sodipodi:sides="5"
             sodipodi:cx="335.21127"
             sodipodi:cy="54.929577"
             sodipodi:r1="16.425217"
             sodipodi:r2="8.2126083"
             sodipodi:arg1="-0.5404195"
             sodipodi:arg2="0.08789903"
             inkscape:flatsided="false"
             inkscape:rounded="0"
             inkscape:randomized="0"
             d="m 349.29578,46.478873 -5.9036,9.171655 4.20854,10.0628 -10.54707,-2.780464 -8.26978,7.112142 -0.61485,-10.890077 -9.31955,-5.667254 10.16708,-3.949974 2.50998,-10.614698 6.89845,8.448859 z"
             transform="matrix(0.26469891,0,0,0.22198464,-76.845863,61.031129)"
             inkscape:transform-center-x="0.30126625"
             inkscape:transform-center-y="-0.11789079" />
          <path
             sodipodi:type="star"
             style="fill:#ffffff;fill-opacity:0.269076;stroke:none;stroke-width:3.77953;stroke-miterlimit:4;stroke-dasharray:none;stroke-opacity:1"
             id="path1046-4"
             sodipodi:sides="5"
             sodipodi:cx="16.361805"
             sodipodi:cy="16.006573"
             sodipodi:r1="16.425217"
             sodipodi:r2="8.2126083"
             sodipodi:arg1="-0.5404195"
             sodipodi:arg2="0.08789903"
             inkscape:flatsided="false"
             inkscape:rounded="0"
             inkscape:randomized="0"
             d="m 30.446312,7.5558685 -5.903605,9.1716555 4.208547,10.0628 L 18.204178,24.009859 9.9343987,31.122002 9.3195514,20.231925 2.3486041e-8,14.564671 10.16708,10.614697 12.67706,-7.6685106e-7 19.575508,8.4488583 Z"
             inkscape:transform-center-x="0.30126625"
             inkscape:transform-center-y="-0.11789079"
             transform="matrix(0.26469891,0,0,0.22198464,88.382758,6.9268097)" />
          <path
             sodipodi:type="star"
             style="fill:#ffffff;fill-opacity:0.269076;stroke:none;stroke-width:3.77953;stroke-miterlimit:4;stroke-dasharray:none;stroke-opacity:1"
             id="path1046-6"
             sodipodi:sides="5"
             sodipodi:cx="16.361805"
             sodipodi:cy="16.006573"
             sodipodi:r1="16.425217"
             sodipodi:r2="8.2126083"
             sodipodi:arg1="-0.5404195"
             sodipodi:arg2="0.08789903"
             inkscape:flatsided="false"
             inkscape:rounded="0"
             inkscape:randomized="0"
             d="m 30.446312,7.5558685 -5.903605,9.1716555 4.208547,10.0628 L 18.204178,24.009859 9.9343987,31.122002 9.3195514,20.231925 2.3486041e-8,14.564671 10.16708,10.614697 12.67706,-7.6685106e-7 19.575508,8.4488583 Z"
             inkscape:transform-center-x="0.50690776"
             inkscape:transform-center-y="-0.2079583"
             transform="matrix(0.4453798,0,0,0.39157894,198.7361,14.467526)" />
        </g>
      </g>
    </g>
  </g>
</svg>
